<?xml version="1.0" encoding="UTF-8"?>
<svg version="1.1" xmlns="http://www.w3.org/2000/svg" width="572" height="443">
<path d="M0 0 C35.31 0 70.62 0 107 0 C114.37363868 39.19671085 114.37363868 39.19671085 116.52734375 50.91015625 C116.67300215 51.7023311 116.81866055 52.49450596 116.96873283 53.31068611 C123.65278877 89.72291813 129.55682559 126.24345371 134 163 C135.72396502 153.38099245 137.38210669 143.75266505 138.98828125 134.11328125 C143.67170323 106.14569172 148.78730801 78.30027145 154.375 50.5 C154.52591221 49.74808506 154.67682442 48.99617012 154.83230972 48.22146988 C155.84903512 43.15698031 156.87165928 38.09371041 157.8984375 33.03125 C158.15230728 31.77700729 158.40617706 30.52276459 158.66773987 29.23051453 C160.66324572 19.45681748 162.83506506 9.74220724 165 0 C240.57 0 316.14 0 394 0 C398.62419587 35.837518 398.62419587 35.837518 400.515625 53.421875 C400.73450056 55.43663794 400.95354604 57.45138242 401.17274475 59.46611023 C401.75095067 64.79232053 402.32427905 70.11904281 402.89560318 75.44599533 C403.25507646 78.7973273 403.61546071 82.1485605 403.97592163 85.49978638 C410.34387293 144.76347886 416.19145279 204.06773613 421.00500107 263.47911739 C421.23767889 266.34824042 421.47273404 269.21716668 421.70788193 272.08608818 C421.86685577 274.04161873 422.02151506 275.99749853 422.17605591 277.9533844 C422.2706308 279.11023239 422.36520569 280.26708038 422.46264648 281.45898438 C422.54288559 282.46328491 422.62312469 283.46758545 422.70579529 284.50231934 C422.92910573 287.12577932 422.92910573 287.12577932 424 290 C424.08245972 288.8924939 424.16491943 287.78498779 424.24987793 286.6439209 C428.86784915 224.69037142 433.83823135 162.79024121 439.72015381 100.94342041 C440.01189261 97.87491365 440.30310372 94.80635711 440.59423828 91.73779297 C441.93201751 77.64325397 443.27875936 63.5495915 444.6349678 49.45681381 C444.83625504 47.36477123 445.03737418 45.27271246 445.23832321 43.18063736 C445.80590785 37.27200861 446.37617051 31.36365159 446.95095825 25.45571899 C447.12514025 23.66202918 447.29848718 21.86825805 447.47094727 20.07440186 C447.70727246 17.61877351 447.94681958 15.1634807 448.18725586 12.70825195 C448.2552687 11.99463658 448.32328154 11.28102121 448.39335537 10.54578114 C448.74906251 6.95189566 449.28897572 3.55512138 450 0 C490.26 0 530.52 0 572 0 C571.41073564 9.42822969 570.82263301 18.5899206 569.5582428 27.90454102 C569.41491357 28.99423439 569.27158434 30.08392776 569.1239118 31.20664215 C568.64908776 34.80644034 568.16649012 38.40514999 567.68383789 42.00390625 C567.33804306 44.61309273 566.99268767 47.22233395 566.64787292 49.83164978 C565.90450642 55.45025975 565.15713188 61.06832464 564.40699959 66.68603516 C563.30273039 74.95601459 562.2048519 83.22683352 561.10832804 91.49784303 C559.30250644 105.1177868 557.49180579 118.73707727 555.67797852 132.35595703 C553.96245354 145.23683584 552.24882868 158.11796442 550.53833008 170.99951172 C550.43510203 171.77690264 550.33187399 172.55429356 550.22551782 173.35524178 C549.60129461 178.05629384 548.97715476 182.75735696 548.35303429 187.45842266 C547.41456009 194.52715022 546.47591945 201.59585567 545.53720093 208.66455078 C545.43395836 209.44199646 545.33071579 210.21944214 545.22434466 211.02044678 C543.76618118 222.00043713 542.30655909 232.98023278 540.84579895 243.95987797 C536.68771636 275.21389264 532.53748214 306.46890241 528.41297114 337.7273674 C527.77256962 342.58069933 527.13181633 347.43398477 526.49100018 352.28726196 C526.07385885 355.44671488 525.65673206 358.60616971 525.23960876 361.765625 C525.13763767 362.53796628 525.03566657 363.31030756 524.93060543 364.10605311 C523.72774347 373.21712389 522.52642266 382.32839512 521.32753505 391.43998975 C520.58804376 397.05937631 519.84696527 402.67855207 519.10463886 408.2975648 C518.67812727 411.52656715 518.25268648 414.75570459 517.82879519 417.98505211 C517.37046247 421.47623693 516.90932958 424.96704071 516.44749451 428.45776367 C516.31424509 429.4782354 516.18099567 430.49870712 516.04370838 431.55010223 C515.91992296 432.48132652 515.79613753 433.41255081 515.66860104 434.37199402 C515.56284219 435.17509601 515.45708334 435.97819799 515.34811968 436.80563641 C515.01702883 438.89265918 514.5125074 440.94997039 514 443 C455.92 443 397.84 443 338 443 C336.25301077 433.68272412 334.52709806 424.43941849 333.14137268 415.07527161 C332.97732797 413.98346153 332.81328326 412.89165146 332.6442675 411.76675624 C332.10323243 408.16107836 331.56637527 404.55479184 331.02954102 400.94848633 C330.63816382 398.33433238 330.24655062 395.72021478 329.85464478 393.10614014 C329.0114082 387.47846874 328.17031582 381.85048031 327.33069038 376.22226906 C326.09516085 367.94033374 324.85613385 359.65892434 323.61634921 351.37762507 C321.57553376 337.74517269 319.53728536 324.11233781 317.50073242 310.47924805 C314.63492995 291.29506892 311.76617379 272.11133241 308.89648438 252.92773438 C308.66121477 251.35496009 308.42594546 249.78218576 308.19067645 248.20941138 C306.77891156 238.77177998 306.77891156 238.77177998 305.36710393 229.33415496 C304.1938163 221.49101388 303.02069142 213.64784849 301.84791946 205.80463028 C294.7832577 158.5579414 287.69672017 111.3145763 280.58984375 64.07421875 C280.42373084 62.97004197 280.42373084 62.97004197 280.25426212 61.84355858 C277.50396502 43.56220326 274.75260332 25.28100823 272 7 C270.36064703 10.18528148 269.22181287 13.26734938 268.19433594 16.70556641 C267.84416916 17.87086884 267.49400238 19.03617126 267.13322449 20.23678589 C266.75019689 21.52502164 266.36724976 22.81328132 265.984375 24.1015625 C265.57751974 25.46079492 265.17035127 26.81993362 264.76289368 28.1789856 C263.65384944 31.88169168 262.54948803 35.58577983 261.44600296 39.29014587 C260.50944963 42.43196501 259.5701725 45.57296694 258.63084888 48.71395874 C255.65776341 58.65564229 252.69301069 68.59979989 249.73119354 78.54484558 C249.01720241 80.94223887 248.30307939 83.33959285 247.58892822 85.73693848 C242.10928596 104.13282214 236.64073424 122.53199207 231.17755127 140.93276978 C227.88299961 152.0289637 224.5850032 163.12412974 221.28515625 174.21875 C220.80466876 175.8343292 220.32418475 177.44990944 219.84370422 179.06549072 C216.10122753 191.64917234 216.10122753 191.64917234 214.34988403 197.53649902 C214.14472325 198.22658365 213.93956247 198.91666828 213.7281847 199.62766457 C213.3148685 201.01641358 212.90070475 202.40491062 212.48570538 203.79315758 C211.41763218 207.37060663 210.3667208 210.95176838 209.34416199 214.54251099 C207.12760051 222.25761619 204.73665753 229.83270735 201.92749977 237.35508919 C187.01828228 277.55744903 186.83401992 315.80251702 187.40218198 358.15060997 C187.54637055 369.18922518 187.55760952 380.22810167 187.57909584 391.26750755 C187.61593824 408.51365082 187.82089897 425.75338497 188 443 C152.69 443 117.38 443 81 443 C81.41507812 433.15542969 81.83015625 423.31085938 82.2578125 413.16796875 C82.45961282 406.63326804 82.65200728 400.1019312 82.78149414 393.56591797 C82.7982029 392.72611759 82.81491165 391.88631721 82.83212674 391.02106833 C82.95259511 384.74348171 83.04718712 378.46575363 83.125 372.1875 C83.14164963 370.8494536 83.14164963 370.8494536 83.15863562 369.48437595 C83.83142048 311.38317419 77.3283789 258.88500099 60.0625 203.375 C59.82938519 202.62452629 59.59627039 201.87405257 59.3560915 201.10083723 C55.10884412 187.45486638 50.70853695 173.86000938 46.12435913 160.32347107 C45.89552209 159.64772154 45.66668506 158.971972 45.43091357 158.27574521 C45.20272445 157.60199328 44.97453532 156.92824134 44.73943138 156.23407269 C38.79746563 138.68466846 33.41801559 121.01402478 28.31640625 103.203125 C28.12958841 102.55167637 27.94277057 101.90022774 27.75029159 101.22903824 C25.78847285 94.38620722 23.83910135 87.53988276 21.89901733 80.69085693 C20.19334168 74.67140666 18.46617619 68.65843454 16.72583008 62.64892578 C16.47879428 61.79582258 16.23175848 60.94271938 15.97723675 60.06376457 C15.50115656 58.41975707 15.02506954 56.77575154 14.54897499 55.1317482 C13.25928204 50.67068559 11.97999098 46.20664187 10.70097065 41.74250984 C9.65587612 38.09515661 8.60838622 34.44852345 7.55615234 30.80322266 C6.48035941 27.07616128 5.40965393 23.34767545 4.34274673 19.61806107 C3.94822408 18.24204952 3.55194357 16.86654052 3.15374374 15.49158859 C2.61433429 13.62780967 2.08212446 11.76195153 1.55029297 9.89599609 C1.2492868 8.84834076 0.94828064 7.80068542 0.63815308 6.72128296 C0 4 0 4 0 0 Z " fill="#FFFFFF" transform="translate(0,0)"/>
</svg>
